HIERARCHY
ROOT Hips
{
 OFFSET 0.000000 0.000000 0.000000
 CHANNELS 6 Xposition Yposition Zposition Yrotation Xrotation Zrotation
 JOINT Chest
 {
  OFFSET 0.000000 9.585900 0.002600
  CHANNELS 3 Yrotation Xrotation Zrotation
  JOINT Chest2
  {
   OFFSET 0.000000 9.601200 -0.005300
   CHANNELS 3 Yrotation Xrotation Zrotation
   JOINT Chest3
   {
    OFFSET 0.000000 9.561800 0.000000
    CHANNELS 3 Yrotation Xrotation Zrotation
    JOINT Chest4
    {
     OFFSET 0.000000 9.552100 0.000000
     CHANNELS 3 Yrotation Xrotation Zrotation
     JOINT Neck
     {
      OFFSET 0.000000 14.453000 0.000000
      CHANNELS 3 Yrotation Xrotation Zrotation
      JOINT Head
      {
       OFFSET 0.000000 8.936500 -0.011300
       CHANNELS 3 Yrotation Xrotation Zrotation
       End Site
       {
        OFFSET 0.000000 17.073600 -0.006000
       }
      }
     }
     JOINT RightCollar
     {
      OFFSET -2.921100 9.558500 0.000000
      CHANNELS 3 Yrotation Xrotation Zrotation
      JOINT RightShoulder
      {
       OFFSET -13.519700 0.000000 0.000000
       CHANNELS 3 Yrotation Xrotation Zrotation
       JOINT RightElbow
       {
        OFFSET 0.000000 -29.696600 0.000000
        CHANNELS 3 Yrotation Xrotation Zrotation
        JOINT RightWrist
        {
         OFFSET 0.000000 -24.004700 0.000000
         CHANNELS 3 Yrotation Xrotation Zrotation
         End Site
         {
          OFFSET 0.000000 -17.728500 0.000000
         }
        }
       }
      }
     }
     JOINT LeftCollar
     {
      OFFSET 2.921100 9.558500 0.000000
      CHANNELS 3 Yrotation Xrotation Zrotation
      JOINT LeftShoulder
      {
       OFFSET 13.519700 0.000000 0.000000
       CHANNELS 3 Yrotation Xrotation Zrotation
       JOINT LeftElbow
       {
        OFFSET 0.000000 -29.696600 0.000000
        CHANNELS 3 Yrotation Xrotation Zrotation
        JOINT LeftWrist
        {
         OFFSET 0.000000 -24.004700 0.000000
         CHANNELS 3 Yrotation Xrotation Zrotation
         End Site
         {
          OFFSET 0.000000 -17.728500 0.000000
         }
        }
       }
      }
     }
    }
   }
  }
 }
 JOINT RightHip
 {
  OFFSET -7.771700 -0.012900 -0.001300
  CHANNELS 3 Yrotation Xrotation Zrotation
  JOINT RightKnee
  {
   OFFSET 0.000000 -40.869800 0.001200
   CHANNELS 3 Yrotation Xrotation Zrotation
   JOINT RightAnkle
   {
    OFFSET 0.000000 -39.717900 0.002100
    CHANNELS 3 Yrotation Xrotation Zrotation
    JOINT RightToe
    {
     OFFSET 0.000000 -4.965400 11.033500
     CHANNELS 3 Yrotation Xrotation Zrotation
     End Site
     {
      OFFSET 0.000000 -1.423100 5.872300
     }
    }
   }
  }
 }
 JOINT LeftHip
 {
  OFFSET 7.771700 -0.012900 -0.001300
  CHANNELS 3 Yrotation Xrotation Zrotation
  JOINT LeftKnee
  {
   OFFSET 0.000000 -40.869800 0.001200
   CHANNELS 3 Yrotation Xrotation Zrotation
   JOINT LeftAnkle
   {
    OFFSET 0.000000 -39.717900 0.002100
    CHANNELS 3 Yrotation Xrotation Zrotation
    JOINT LeftToe
    {
     OFFSET 0.000000 -4.965400 11.033500
     CHANNELS 3 Yrotation Xrotation Zrotation
     End Site
     {
      OFFSET 0.000000 -1.423100 5.872300
     }
    }
   }
  }
 }
}
MOTION
Frames: 16
Frame Time: 0.008333
0.000000 85.388000 0.000000 0.000000 -5.767877 0.000000 0.000000 11.653817 0.000000 0.000000 -5.885947 0.000000 0.000000 -0.000000 0.000000 0.000000 -0.000000 0.000000 0.000000 12.528835 0.000000 0.000000 0.711642 0.000000 0.000000 -0.000000 0.000000 0.000000 0.000000 -90.000000 0.000000 -2.309062 0.000000 0.000000 2.309062 0.000000 0.000000 -0.000000 0.000000 0.000000 -0.000000 90.000000 0.000000 -2.309062 0.000000 0.000000 2.309062 0.000000 0.000000 8.520406 0.000000 0.000000 1.905762 0.000000 -0.000000 -4.658285 0.000000 0.000000 -0.000000 0.000000 0.000000 8.520406 0.000000 0.000000 1.905762 0.000000 -0.000000 -4.658285 0.000000 0.000000 -0.000000 0.000000
-230.831793 57.701261 23.168071 173.880238 -50.117672 -3.617193 4.626792 22.688820 3.465672 2.367724 12.986047 1.726726 3.063051 16.242714 2.241472 2.376985 12.989581 1.719722 4.875069 17.892839 6.498193 6.828977 -2.666499 10.350378 1.707471 3.981788 0.820754 1.704417 -15.376235 -13.517955 -104.821523 -66.188442 148.753230 18.559785 13.961625 -17.505816 -8.852611 1.126051 -0.267859 3.604426 -9.173345 13.512098 70.035867 -57.541877 -120.856297 -6.136098 -0.005817 -0.078361 6.584851 -21.812237 -0.020006 -41.998077 72.650480 -45.079283 4.099706 -13.662103 12.157264 -0.084685 -0.054506 -0.023566 -8.876375 -19.416128 10.111046 54.822693 82.046125 57.210423 0.029508 -18.359274 -22.351743 0.061823 -0.008436 0.009942
-230.830952 57.697933 23.164886 173.867505 -50.120329 -3.601349 4.614879 22.680951 3.464247 2.364562 12.978114 1.727810 3.068688 16.255098 2.227881 2.362719 12.957322 1.734587 4.866629 18.056025 6.489739 6.823840 -2.363622 10.338927 1.724053 3.992881 0.814965 1.704104 -15.498022 -13.518001 -105.127938 -66.156830 148.987785 18.611947 13.974010 -17.549001 -8.850809 1.110788 -0.292360 3.549556 -9.345659 13.538875 69.959211 -57.476324 -120.730860 -6.209779 0.011917 -0.112732 6.593551 -21.812890 -0.021403 -42.029422 72.652779 -45.121719 4.092338 -13.669242 12.163689 -0.085551 -0.048160 -0.024342 -8.867300 -19.412769 10.100231 54.835169 82.055228 57.233633 0.040994 -18.364440 -22.360091 0.068228 -0.006458 0.011741
-230.831496 57.694658 23.162025 173.853008 -50.126618 -3.576054 4.603181 22.677553 3.456594 2.363911 12.972397 1.729591 3.055025 16.241942 2.226173 2.364370 12.955636 1.735943 4.851142 18.216709 6.481060 6.805821 -2.065084 10.329490 1.734511 3.968441 0.829393 1.704352 -15.585149 -13.528675 -105.476407 -66.125915 149.246525 18.679838 13.998536 -17.571354 -8.848864 1.116652 -0.320520 3.505146 -9.478612 13.550872 69.967482 -57.433513 -120.712831 -6.266003 0.017983 -0.141111 6.606717 -21.808425 -0.030987 -42.057314 72.649444 -45.164475 4.093082 -13.673773 12.168446 -0.086504 -0.043818 -0.018045 -8.859330 -19.401238 10.081108 54.826994 82.052256 57.225039 0.038801 -18.371027 -22.350696 0.073866 0.000070 0.003221
-230.832155 57.692578 23.159676 173.805573 -50.144180 -3.526057 4.618310 22.684492 3.454785 2.364708 12.972232 1.725012 3.042866 16.226193 2.232776 2.368634 12.957854 1.734157 4.837909 18.308206 6.468064 6.756881 -1.713848 10.338706 1.753559 3.921197 0.870240 1.685330 -15.650836 -13.548967 -105.869860 -66.098247 149.534593 18.766022 14.032603 -17.577101 -8.853405 1.116484 -0.345929 3.466715 -9.574917 13.553230 70.018430 -57.398700 -120.747771 -6.303127 0.011571 -0.161167 6.641303 -21.793478 -0.032468 -42.097568 72.636757 -45.223697 4.131168 -13.674936 12.189417 -0.117352 -0.047066 -0.031994 -8.852902 -19.370295 10.056082 54.861374 82.033470 57.238515 0.033380 -18.402324 -22.356214 0.085664 0.029819 0.007566
-230.830381 57.688767 23.161560 173.835500 -50.142810 -3.554460 4.595366 22.675991 3.470244 2.365908 12.977534 1.716730 3.043236 16.199380 2.259262 2.365598 12.971369 1.723018 4.802416 18.488761 6.462996 6.716794 -1.467935 10.327601 1.768231 3.905231 0.893389 1.648774 -15.753091 -13.534290 -106.311082 -66.077070 149.856502 18.871427 14.078930 -17.574795 -8.872406 1.096340 -0.366252 3.438434 -9.655962 13.546269 70.050015 -57.354990 -120.766345 -6.324899 -0.010348 -0.168749 6.610183 -21.799154 0.001511 -42.154840 72.615422 -45.307784 4.092622 -13.668330 12.191466 -0.092207 -0.037292 -0.015031 -8.899386 -19.361521 10.053655 54.843797 82.020419 57.228380 0.054443 -18.382153 -22.378790 0.074752 0.028214 0.008189
-230.830496 57.686238 23.164812 173.834525 -50.149852 -3.551233 4.594850 22.672811 3.478571 2.363477 12.975268 1.718848 3.048288 16.201947 2.267685 2.365009 12.975059 1.722879 4.756284 18.659161 6.456059 6.660796 -1.241001 10.318362 1.763627 3.904443 0.893673 1.609783 -15.877634 -13.480820 -106.810296 -66.064911 150.222242 18.989250 14.134806 -17.563068 -8.905912 1.073363 -0.378781 3.421332 -9.738821 13.523616 69.974042 -57.325886 -120.661677 -6.341863 -0.100461 -0.191167 6.607943 -21.795119 0.013091 -42.179906 72.605117 -45.345789 4.090594 -13.666381 12.195311 -0.080128 -0.032385 -0.014091 -8.930477 -19.347615 10.044718 54.852371 82.008046 57.222936 0.066813 -18.378219 -22.393573 0.073359 0.033302 0.006863
-230.831705 57.684402 23.170345 173.830362 -50.157750 -3.543312 4.598589 22.676178 3.491380 2.366469 12.976177 1.728550 3.040253 16.206254 2.255313 2.370174 12.977834 1.729853 4.707577 18.783383 6.445710 6.580760 -1.008626 10.315992 1.756500 3.896914 0.894619 1.561105 -15.998764 -13.413605 -107.372164 -66.060032 150.638346 19.110433 14.197063 -17.539233 -8.924900 1.067282 -0.391360 3.389091 -9.840423 13.490478 70.020799 -57.260642 -120.702281 -6.349704 -0.111103 -0.174960 6.611312 -21.788688 0.018115 -42.192201 72.595728 -45.368073 4.091347 -13.665767 12.199461 -0.072424 -0.025363 -0.016655 -8.964484 -19.332925 10.034071 54.854432 81.992309 57.203910 0.082356 -18.369512 -22.407835 0.071804 0.040330 0.009954
-230.834406 57.682623 23.178687 173.826452 -50.160233 -3.531323 4.597577 22.679189 3.483822 2.367023 12.977935 1.735215 3.046740 16.211621 2.262188 2.369073 12.976753 1.728783 4.656887 18.894900 6.436898 6.487079 -0.806952 10.312331 1.763162 3.894490 0.915295 1.493522 -16.119281 -13.351503 -107.974939 -66.057474 151.092243 19.227675 14.260766 -17.509004 -8.946459 1.059192 -0.398188 3.365883 -9.933238 13.443877 70.068082 -57.189316 -120.736765 -6.373086 -0.116075 -0.164201 6.617269 -21.785632 0.021680 -42.176452 72.577585 -45.370514 4.072055 -13.650854 12.221696 -0.064962 -0.021539 -0.021463 -9.000181 -19.324862 10.020765 54.838949 81.974299 57.165410 0.082919 -18.362477 -22.413959 0.067503 0.049007 0.012749
-230.836803 57.682661 23.188613 173.826283 -50.169457 -3.527687 4.590495 22.689030 3.486961 2.371129 12.979040 1.729193 3.060226 16.225070 2.279308 2.355792 12.965226 1.715736 4.610437 18.998454 6.433762 6.380243 -0.638771 10.307273 1.779756 3.904499 0.944172 1.405969 -16.239347 -13.281230 -108.579978 -66.052674 151.557160 19.339556 14.315904 -17.476799 -8.965983 1.066172 -0.396558 3.352261 -10.023999 13.383210 70.103113 -57.134634 -120.732964 -6.410008 -0.137673 -0.181354 6.618751 -21.775887 0.032650 -42.181227 72.562816 -45.383583 4.055213 -13.642550 12.228375 -0.058785 -0.017329 -0.020196 -9.039118 -19.309445 10.012468 54.821067 81.953223 57.123493 0.090160 -18.346869 -22.426518 0.063345 0.052159 0.014871
-230.839661 57.684036 23.200200 173.814212 -50.182035 -3.515670 4.597543 22.704474 3.494496 2.374641 12.983494 1.731754 3.066847 16.237865 2.284151 2.357577 12.962263 1.716945 4.543093 19.078910 6.420173 6.262193 -0.504730 10.300054 1.783219 3.905114 0.964995 1.299201 -16.354722 -13.203662 -109.157627 -66.038090 152.012173 19.446550 14.364785 -17.441180 -9.016520 1.080012 -0.414449 3.360001 -10.124605 13.324801 70.175467 -57.094016 -120.749999 -6.454026 -0.151099 -0.213490 6.627321 -21.762053 0.041555 -42.144372 72.547557 -45.357430 4.043408 -13.627723 12.237878 -0.052764 -0.012256 -0.022076 -9.070359 -19.289342 10.007880 54.827978 81.934605 57.099237 0.096346 -18.337649 -22.432924 0.061944 0.055594 0.015870
-230.842674 57.686752 23.213275 173.799847 -50.197129 -3.504239 4.611844 22.723480 3.507380 2.377160 12.990305 1.734946 3.063162 16.238916 2.279595 2.368240 12.976357 1.727441 4.495974 19.099926 6.403522 6.106946 -0.363006 10.301671 1.789684 3.902849 0.989107 1.178218 -16.468311 -13.126005 -109.684743 -66.008851 152.432936 19.547477 14.412869 -17.398375 -9.051314 1.080855 -0.430129 3.365606 -10.184706 13.294236 70.344897 -57.041645 -120.862326 -6.499211 -0.153530 -0.258767 6.636237 -21.744702 0.050806 -42.100776 72.519612 -45.326720 4.047075 -13.601813 12.253562 -0.052784 -0.012185 -0.026700 -9.080086 -19.269277 10.003977 54.790271 81.918743 57.047545 0.101625 -18.331580 -22.435736 0.061809 0.062301 0.014828
-230.845475 57.686920 23.230836 173.795722 -50.184345 -3.507215 4.618223 22.716631 3.523362 2.381183 13.000029 1.738594 3.060239 16.237270 2.275363 2.381139 13.000145 1.738566 4.403551 19.168858 6.383544 5.989748 -0.306569 10.284238 1.812001 3.923590 1.048333 1.045489 -16.610006 -13.079234 -110.139522 -65.967165 152.793580 19.642559 14.453954 -17.349499 -9.093502 1.087040 -0.444383 3.383162 -10.291610 13.196376 70.447901 -57.048659 -120.890449 -6.541498 -0.146655 -0.312260 6.632239 -21.753163 0.067714 -42.005545 72.472761 -45.253170 4.052469 -13.554957 12.276861 -0.058373 -0.013148 -0.035021 -9.102494 -19.276654 10.007613 54.582484 81.887799 56.842793 0.096911 -18.297581 -22.457570 0.075869 0.063825 0.021898
-230.850960 57.693434 23.244426 173.794790 -50.215223 -3.496701 4.621033 22.756481 3.531922 2.380025 13.009278 1.733249 3.064877 16.253215 2.279525 2.384757 13.012899 1.741860 4.309824 19.223001 6.364051 5.868930 -0.267400 10.267744 1.812029 3.918926 1.069901 0.928827 -16.727307 -12.990840 -110.513915 -65.914499 153.088015 19.728907 14.483531 -17.306058 -9.128672 1.091043 -0.452135 3.412824 -10.388959 13.086007 70.570221 -57.074344 -120.939431 -6.577210 -0.140671 -0.363320 6.632237 -21.714633 0.070972 -41.978575 72.454277 -45.234801 4.040556 -13.542678 12.286290 -0.047099 -0.010892 -0.036769 -9.179609 -19.226682 9.991980 54.621763 81.850859 56.814442 0.112588 -18.285822 -22.470508 0.067162 0.074063 0.018638
-230.855201 57.700524 23.259305 173.790343 -50.244318 -3.494642 4.629709 22.787468 3.542321 2.383579 13.025359 1.739495 3.068116 16.271122 2.283373 2.396273 13.078633 1.759690 4.210940 19.195652 6.327338 5.730302 -0.222163 10.258455 1.801789 3.865022 1.073804 0.817328 -16.843317 -12.900299 -110.821128 -65.850604 153.327584 19.805204 14.506701 -17.273831 -9.172531 1.048511 -0.460036 3.445371 -10.470242 13.011158 70.752044 -57.075214 -121.044581 -6.607168 -0.143553 -0.404050 6.632145 -21.677463 0.081812 -41.904727 72.431316 -45.169373 4.031406 -13.515976 12.302090 -0.041614 -0.011913 -0.043819 -9.205405 -19.188800 9.988831 54.608297 81.835039 56.774289 0.119661 -18.279750 -22.476351 0.059500 0.076866 0.021234
-230.857047 57.708754 23.274773 173.774394 -50.277436 -3.501459 4.646509 22.819865 3.565323 2.387686 13.058086 1.750039 3.074714 16.274440 2.283293 2.385606 13.092055 1.759816 4.153286 19.198681 6.308109 5.572593 -0.170662 10.258184 1.812618 3.867736 1.087957 0.713485 -16.956315 -12.808007 -111.078020 -65.777489 153.525092 19.875896 14.526287 -17.249399 -9.192998 1.069270 -0.462009 3.493192 -10.551531 12.905549 70.915907 -57.103674 -121.136332 -6.632257 -0.156712 -0.437100 6.631866 -21.635799 0.110820 -41.790490 72.376047 -45.059716 4.041130 -13.455118 12.319255 -0.040996 -0.015726 -0.047241 -9.207849 -19.148643 10.002596 54.509201 81.814539 56.667898 0.117223 -18.258774 -22.480879 0.059768 0.070966 0.024766
